<svg id="svg" version="1.1" xmlns="http://www.w3.org/2000/svg" xmlns:xlink="http://www.w3.org/1999/xlink" width="400" height="339.8797595190381" viewBox="0, 0, 400,339.8797595190381"><g id="svgg"><path id="path0" d="M134.014 170.432 L 134.014 265.013 171.684 264.860 C 213.178 264.692,212.355 264.731,222.279 262.427 C 257.707 254.198,286.800 223.209,292.529 187.596 C 292.891 185.345,293.379 182.355,293.613 180.952 C 294.161 177.672,294.166 163.217,293.620 160.204 C 293.400 158.988,292.972 156.386,292.670 154.422 C 287.288 119.474,260.575 89.282,226.326 79.435 C 214.593 76.062,211.412 75.862,169.303 75.856 L 134.014 75.850 134.014 170.432 M210.204 114.087 C 260.411 123.493,273.711 189.368,231.091 217.542 C 219.016 225.525,210.568 227.326,186.054 227.145 L 171.939 227.041 171.853 170.129 L 171.767 113.217 189.370 113.349 C 204.421 113.462,207.441 113.569,210.204 114.087 " stroke="none" fill="#fbfbfb" fill-rule="evenodd"></path><path id="path1" d="M94.654 1.276 C 94.239 1.977,93.567 3.240,93.161 4.082 C 92.754 4.923,92.293 5.662,92.137 5.723 C 91.980 5.784,91.445 6.741,90.947 7.849 C 90.450 8.957,89.943 9.864,89.821 9.864 C 89.699 9.864,89.229 10.706,88.776 11.735 C 88.322 12.764,87.855 13.605,87.737 13.605 C 87.620 13.605,87.034 14.562,86.437 15.731 C 85.839 16.901,84.824 18.776,84.180 19.898 C 83.536 21.020,82.613 22.739,82.129 23.718 C 81.645 24.697,81.115 25.580,80.952 25.681 C 80.789 25.781,80.245 26.732,79.743 27.793 C 79.241 28.854,78.619 29.933,78.361 30.191 C 78.102 30.450,77.891 30.810,77.891 30.993 C 77.891 31.176,77.349 32.173,76.686 33.209 C 76.024 34.245,75.242 35.691,74.949 36.424 C 74.656 37.156,74.298 37.755,74.155 37.755 C 74.011 37.755,73.569 38.509,73.173 39.430 C 72.777 40.351,72.260 41.307,72.024 41.556 C 71.789 41.804,71.226 42.810,70.774 43.793 C 70.322 44.775,69.863 45.579,69.755 45.579 C 69.646 45.579,69.099 46.536,68.537 47.705 C 67.976 48.874,67.330 50.028,67.101 50.270 C 66.872 50.512,66.366 51.354,65.975 52.141 C 65.585 52.928,64.777 54.435,64.180 55.490 C 63.583 56.545,62.578 58.382,61.946 59.572 C 61.314 60.761,60.702 61.811,60.585 61.905 C 60.469 61.998,59.991 62.836,59.524 63.765 C 59.056 64.695,58.444 65.716,58.163 66.034 C 57.883 66.353,57.352 67.390,56.983 68.340 C 56.614 69.291,56.199 70.068,56.061 70.068 C 55.922 70.068,55.442 70.795,54.993 71.684 C 53.575 74.495,51.982 77.375,51.749 77.551 C 51.625 77.645,51.073 78.639,50.521 79.762 C 49.970 80.884,49.432 81.879,49.326 81.973 C 49.220 82.066,48.754 82.907,48.291 83.841 C 47.828 84.775,47.271 85.693,47.055 85.882 C 46.838 86.070,46.321 87.028,45.907 88.010 C 45.493 88.992,45.039 89.796,44.897 89.796 C 44.756 89.796,44.439 90.293,44.192 90.901 C 43.945 91.509,43.162 92.966,42.450 94.139 C 41.739 95.311,41.156 96.410,41.156 96.580 C 41.156 96.751,40.956 97.092,40.711 97.340 C 40.465 97.587,39.822 98.707,39.281 99.830 C 38.740 100.952,38.177 101.956,38.029 102.059 C 37.760 102.248,36.612 104.326,34.845 107.823 C 34.325 108.852,33.785 109.772,33.644 109.867 C 33.294 110.104,31.633 113.443,31.633 113.910 C 31.633 114.117,31.493 114.286,31.323 114.286 C 31.152 114.286,30.664 115.013,30.237 115.901 C 29.810 116.790,29.289 117.670,29.078 117.857 C 28.867 118.044,28.410 118.886,28.061 119.728 C 27.713 120.570,27.255 121.412,27.045 121.599 C 26.834 121.786,26.296 122.704,25.848 123.639 C 25.401 124.575,24.846 125.532,24.615 125.767 C 24.383 126.002,24.086 126.538,23.955 126.958 C 23.823 127.378,23.194 128.538,22.557 129.536 C 21.921 130.534,21.160 131.950,20.867 132.682 C 20.574 133.414,20.217 134.014,20.073 134.014 C 19.929 134.014,19.486 134.770,19.088 135.695 C 18.691 136.620,18.219 137.467,18.040 137.577 C 17.861 137.688,17.305 138.691,16.804 139.807 C 16.303 140.924,15.772 141.837,15.623 141.837 C 15.474 141.837,15.243 142.181,15.109 142.602 C 14.976 143.023,14.480 143.980,14.007 144.728 C 13.535 145.476,12.677 146.977,12.101 148.063 C 11.525 149.149,10.595 150.854,10.034 151.853 C 9.473 152.852,8.573 154.489,8.034 155.491 C 7.495 156.493,6.952 157.389,6.829 157.483 C 6.705 157.577,6.152 158.571,5.601 159.694 C 5.050 160.816,4.497 161.811,4.373 161.905 C 4.155 162.069,3.043 164.076,0.941 168.098 L -0.074 170.040 0.701 171.670 C 1.128 172.566,1.918 173.952,2.458 174.749 C 2.998 175.546,3.599 176.656,3.794 177.215 C 3.989 177.774,4.278 178.231,4.436 178.231 C 4.594 178.231,5.136 179.150,5.640 180.272 C 6.143 181.395,6.677 182.313,6.826 182.313 C 6.975 182.313,7.206 182.657,7.338 183.078 C 7.471 183.499,8.170 184.754,8.892 185.867 C 9.613 186.980,10.204 188.061,10.204 188.269 C 10.204 188.477,10.472 188.944,10.799 189.307 C 11.127 189.669,11.759 190.731,12.204 191.667 C 12.649 192.602,13.185 193.522,13.395 193.710 C 13.604 193.899,14.154 194.817,14.618 195.751 C 15.081 196.685,15.558 197.526,15.679 197.619 C 15.800 197.713,16.387 198.707,16.983 199.830 C 18.686 203.032,19.769 204.914,20.017 205.101 C 20.142 205.195,20.698 206.190,21.251 207.313 C 21.805 208.435,22.374 209.404,22.516 209.465 C 22.658 209.526,23.181 210.482,23.678 211.590 C 24.176 212.699,24.697 213.605,24.837 213.605 C 24.976 213.605,25.501 214.409,26.004 215.391 C 27.520 218.358,28.950 220.901,29.205 221.085 C 29.337 221.180,29.820 222.062,30.279 223.044 C 30.738 224.026,31.212 224.830,31.333 224.830 C 31.454 224.830,31.979 225.710,32.501 226.786 C 33.022 227.861,33.556 228.818,33.688 228.912 C 33.819 229.005,34.414 230.000,35.011 231.122 C 36.713 234.325,37.796 236.207,38.044 236.393 C 38.170 236.488,38.725 237.483,39.278 238.605 C 39.832 239.728,40.402 240.697,40.546 240.758 C 40.691 240.820,41.122 241.580,41.506 242.447 C 41.889 243.314,42.330 244.106,42.486 244.206 C 42.751 244.377,43.639 245.926,46.003 250.340 C 46.554 251.369,47.121 252.287,47.262 252.381 C 47.403 252.474,47.885 253.355,48.332 254.337 C 48.780 255.319,49.257 256.122,49.393 256.122 C 49.529 256.122,50.053 257.003,50.557 258.078 C 51.061 259.154,51.581 260.111,51.713 260.204 C 51.844 260.298,52.367 261.139,52.874 262.075 C 55.347 266.634,55.852 267.523,56.064 267.683 C 56.190 267.779,56.675 268.618,57.143 269.548 C 57.611 270.477,58.261 271.539,58.588 271.908 C 58.916 272.276,59.184 272.723,59.184 272.902 C 59.184 273.080,59.767 274.161,60.481 275.303 C 61.194 276.446,61.978 277.878,62.222 278.486 C 62.467 279.094,62.783 279.592,62.925 279.592 C 63.066 279.592,63.506 280.345,63.902 281.266 C 64.298 282.188,64.817 283.144,65.054 283.392 C 65.292 283.640,65.867 284.609,66.332 285.544 C 66.796 286.480,67.294 287.297,67.436 287.360 C 67.579 287.423,68.102 288.341,68.598 289.400 C 69.095 290.460,69.608 291.403,69.739 291.497 C 69.870 291.590,70.324 292.355,70.748 293.197 C 71.173 294.039,71.632 294.804,71.770 294.898 C 71.907 294.991,72.442 295.910,72.959 296.939 C 73.476 297.968,74.011 298.886,74.149 298.980 C 74.286 299.073,74.805 300.014,75.303 301.071 C 75.800 302.127,76.433 303.179,76.709 303.408 C 76.985 303.637,77.211 303.981,77.211 304.172 C 77.211 304.362,77.794 305.453,78.508 306.596 C 79.221 307.739,80.005 309.171,80.250 309.779 C 80.494 310.387,80.806 310.884,80.942 310.884 C 81.078 310.884,81.475 311.519,81.825 312.295 C 82.175 313.070,82.625 313.874,82.825 314.080 C 83.025 314.287,83.624 315.298,84.156 316.327 C 84.689 317.355,85.410 318.562,85.760 319.008 C 86.109 319.455,86.395 319.992,86.395 320.203 C 86.395 320.415,86.902 321.351,87.521 322.283 C 88.141 323.216,88.848 324.477,89.093 325.085 C 89.338 325.693,89.664 326.190,89.818 326.190 C 89.972 326.190,90.510 327.109,91.014 328.231 C 91.517 329.354,92.051 330.272,92.200 330.272 C 92.349 330.272,92.577 330.616,92.707 331.037 C 92.837 331.458,93.398 332.484,93.954 333.316 C 94.511 334.148,95.092 335.159,95.245 335.563 C 95.399 335.967,96.077 337.161,96.752 338.217 L 97.980 340.136 201.465 340.136 L 304.951 340.136 305.551 339.435 C 305.881 339.049,306.489 338.016,306.902 337.139 C 307.315 336.262,307.913 335.256,308.230 334.904 C 308.548 334.552,309.075 333.519,309.403 332.608 C 309.730 331.698,310.130 330.952,310.290 330.952 C 310.451 330.952,310.902 330.225,311.292 329.337 C 311.682 328.448,312.113 327.645,312.249 327.551 C 312.385 327.457,312.919 326.539,313.435 325.510 C 313.952 324.481,314.482 323.563,314.614 323.469 C 314.745 323.376,315.281 322.381,315.805 321.259 C 316.329 320.136,316.865 319.141,316.995 319.048 C 317.125 318.954,317.602 318.112,318.054 317.177 C 318.507 316.241,318.982 315.397,319.111 315.299 C 319.321 315.140,319.774 314.319,322.350 309.422 C 322.764 308.636,323.272 307.797,323.480 307.557 C 323.688 307.317,324.241 306.283,324.709 305.261 C 325.177 304.238,325.668 303.401,325.800 303.401 C 325.931 303.401,326.473 302.406,327.002 301.190 C 327.532 299.974,328.091 298.980,328.246 298.980 C 328.400 298.980,328.635 298.635,328.768 298.214 C 328.902 297.793,329.363 296.891,329.794 296.209 C 330.552 295.007,332.353 291.731,333.786 288.946 C 334.171 288.197,334.602 287.504,334.745 287.404 C 334.887 287.305,335.404 286.348,335.894 285.278 C 336.384 284.209,336.898 283.333,337.037 283.333 C 337.176 283.333,337.641 282.485,338.071 281.449 C 338.501 280.412,339.033 279.379,339.253 279.153 C 339.473 278.927,339.971 278.129,340.359 277.381 C 342.154 273.917,343.640 271.244,343.857 271.088 C 343.988 270.995,344.456 270.153,344.898 269.218 C 345.340 268.282,345.820 267.436,345.965 267.336 C 346.110 267.237,346.645 266.242,347.154 265.125 C 347.663 264.009,348.254 262.942,348.468 262.755 C 348.682 262.568,349.141 261.726,349.490 260.884 C 349.838 260.043,350.294 259.201,350.502 259.014 C 350.711 258.827,351.198 258.061,351.585 257.313 C 352.978 254.622,354.883 251.187,355.076 251.020 C 355.184 250.927,355.643 250.085,356.095 249.150 C 356.548 248.214,357.025 247.372,357.155 247.279 C 357.285 247.185,357.822 246.190,358.348 245.068 C 358.875 243.946,359.480 242.874,359.693 242.687 C 359.906 242.500,360.366 241.658,360.714 240.816 C 361.063 239.974,361.544 239.120,361.784 238.917 C 362.024 238.714,362.545 237.872,362.941 237.046 C 363.917 235.009,365.374 232.325,366.566 230.365 C 367.109 229.472,367.755 228.244,368.002 227.636 C 368.248 227.028,368.552 226.531,368.677 226.531 C 368.802 226.531,369.275 225.689,369.728 224.660 C 370.181 223.631,370.656 222.789,370.783 222.789 C 370.910 222.789,371.448 221.794,371.977 220.578 C 372.507 219.362,373.065 218.367,373.217 218.367 C 373.369 218.367,373.804 217.717,374.184 216.922 C 374.564 216.127,375.474 214.405,376.206 213.095 C 376.939 211.786,378.020 209.796,378.609 208.673 C 379.198 207.551,379.780 206.556,379.902 206.463 C 380.025 206.369,380.501 205.489,380.959 204.507 C 381.418 203.525,381.893 202.721,382.016 202.721 C 382.138 202.721,382.672 201.726,383.202 200.510 C 383.732 199.294,384.286 198.299,384.434 198.299 C 384.582 198.299,385.093 197.496,385.569 196.514 C 386.046 195.531,386.924 193.865,387.521 192.809 C 388.117 191.754,389.123 189.917,389.755 188.728 C 390.387 187.538,390.999 186.488,391.115 186.395 C 391.231 186.301,391.709 185.459,392.177 184.524 C 392.645 183.588,393.115 182.747,393.223 182.653 C 393.330 182.560,393.866 181.565,394.413 180.442 C 394.960 179.320,395.511 178.323,395.637 178.228 C 395.904 178.025,397.452 175.229,398.989 172.174 L 400.068 170.028 399.056 168.092 C 396.955 164.072,395.845 162.069,395.627 161.905 C 395.503 161.811,394.950 160.816,394.399 159.694 C 393.848 158.571,393.295 157.577,393.171 157.483 C 393.048 157.389,392.505 156.493,391.966 155.491 C 391.427 154.489,390.527 152.852,389.966 151.853 C 389.405 150.854,388.475 149.149,387.899 148.063 C 387.323 146.977,386.465 145.476,385.993 144.728 C 385.520 143.980,385.024 143.023,384.891 142.602 C 384.757 142.181,384.526 141.837,384.377 141.837 C 384.228 141.837,383.697 140.924,383.196 139.807 C 382.695 138.691,382.139 137.688,381.960 137.577 C 381.781 137.467,381.309 136.620,380.912 135.695 C 380.514 134.770,380.071 134.014,379.927 134.014 C 379.783 134.014,379.426 133.414,379.133 132.682 C 378.840 131.950,378.079 130.534,377.443 129.536 C 376.806 128.538,376.177 127.378,376.045 126.958 C 375.914 126.538,375.617 126.002,375.385 125.767 C 375.154 125.532,374.599 124.575,374.152 123.639 C 373.704 122.704,373.166 121.786,372.955 121.599 C 372.745 121.412,372.287 120.570,371.939 119.728 C 371.590 118.886,371.133 118.044,370.922 117.857 C 370.711 117.670,370.190 116.790,369.763 115.901 C 369.336 115.013,368.848 114.286,368.677 114.286 C 368.507 114.286,368.367 114.117,368.367 113.910 C 368.367 113.443,366.706 110.104,366.356 109.867 C 366.215 109.772,365.675 108.852,365.155 107.823 C 363.388 104.326,362.240 102.248,361.971 102.059 C 361.823 101.956,361.260 100.952,360.719 99.830 C 360.178 98.707,359.535 97.587,359.289 97.340 C 359.044 97.092,358.844 96.745,358.844 96.568 C 358.844 96.391,358.265 95.292,357.558 94.127 C 356.851 92.961,356.067 91.509,355.816 90.901 C 355.565 90.293,355.244 89.796,355.103 89.796 C 354.961 89.796,354.507 88.992,354.093 88.010 C 353.679 87.028,353.162 86.070,352.945 85.882 C 352.729 85.693,352.172 84.775,351.709 83.841 C 351.246 82.907,350.780 82.066,350.674 81.973 C 350.568 81.879,350.030 80.884,349.479 79.762 C 348.927 78.639,348.361 77.636,348.221 77.533 C 348.081 77.429,347.467 76.381,346.857 75.203 C 346.247 74.026,345.430 72.452,345.040 71.705 C 344.650 70.959,344.180 70.247,343.995 70.123 C 343.809 69.999,343.363 69.163,343.002 68.264 C 342.642 67.365,342.117 66.366,341.837 66.043 C 341.556 65.720,340.944 64.695,340.476 63.765 C 340.009 62.836,339.531 61.998,339.415 61.905 C 339.298 61.811,338.686 60.761,338.054 59.572 C 337.422 58.382,336.417 56.545,335.820 55.490 C 335.223 54.435,334.415 52.928,334.025 52.141 C 333.634 51.354,333.128 50.512,332.899 50.270 C 332.670 50.028,332.024 48.874,331.463 47.705 C 330.901 46.536,330.354 45.579,330.245 45.579 C 330.137 45.579,329.678 44.775,329.226 43.793 C 328.774 42.810,328.211 41.804,327.976 41.556 C 327.740 41.307,327.223 40.351,326.827 39.430 C 326.431 38.509,325.989 37.755,325.845 37.755 C 325.702 37.755,325.344 37.156,325.051 36.424 C 324.758 35.691,323.976 34.245,323.314 33.209 C 322.651 32.173,322.109 31.176,322.109 30.993 C 322.109 30.810,321.898 30.450,321.639 30.191 C 321.381 29.933,320.759 28.854,320.257 27.793 C 319.755 26.732,319.211 25.781,319.048 25.681 C 318.885 25.580,318.355 24.697,317.871 23.718 C 317.387 22.739,316.464 21.020,315.820 19.898 C 315.176 18.776,314.161 16.901,313.563 15.731 C 312.966 14.562,312.380 13.605,312.263 13.605 C 312.145 13.605,311.678 12.764,311.224 11.735 C 310.771 10.706,310.301 9.864,310.179 9.864 C 310.057 9.864,309.550 8.957,309.053 7.849 C 308.555 6.741,308.020 5.784,307.863 5.723 C 307.707 5.662,307.246 4.923,306.839 4.082 C 306.433 3.240,305.761 1.977,305.346 1.276 L 304.592 0.002 200.000 0.002 L 95.408 0.002 94.654 1.276 M206.633 75.862 C 239.418 77.676,268.569 96.829,283.751 126.531 C 300.278 158.864,297.426 197.523,276.374 226.531 C 264.683 242.638,247.210 255.300,228.912 260.925 C 223.207 262.678,221.887 262.998,216.156 264.016 L 210.034 265.103 171.854 265.221 L 133.673 265.339 133.673 170.651 C 133.673 118.573,133.776 75.862,133.900 75.737 C 134.262 75.375,199.872 75.488,206.633 75.862 M172.109 170.044 L 172.109 226.531 188.189 226.531 C 205.542 226.531,207.911 226.372,213.946 224.808 C 249.081 215.704,266.759 176.372,250.160 144.234 C 242.505 129.412,229.143 119.070,212.245 114.888 L 207.993 113.835 190.051 113.696 L 172.109 113.557 172.109 170.044 " stroke="none" fill="#0c5c9c" fill-rule="evenodd"></path><path id="path2" d="M133.843 170.578 L 133.844 265.136 168.622 265.138 L 203.401 265.141 168.708 265.052 L 134.015 264.963 133.928 170.492 L 133.842 76.020 133.843 170.578 M238.095 128.401 C 238.730 129.056,239.326 129.592,239.419 129.592 C 239.513 129.592,239.070 129.056,238.435 128.401 C 237.801 127.747,237.205 127.211,237.111 127.211 C 237.018 127.211,237.461 127.747,238.095 128.401 M240.476 130.719 C 240.476 130.777,240.974 131.275,241.582 131.824 L 242.687 132.823 241.688 131.718 C 240.757 130.687,240.476 130.456,240.476 130.719 " stroke="none" fill="#8494c4" fill-rule="evenodd"></path><path id="path3" d="M151.105 75.765 C 160.599 75.815,176.135 75.815,185.629 75.765 C 195.123 75.715,187.355 75.674,168.367 75.674 C 149.379 75.674,141.611 75.715,151.105 75.765 M265.986 102.551 C 267.568 104.141,268.939 105.442,269.033 105.442 C 269.126 105.442,267.908 104.141,266.327 102.551 C 264.745 100.961,263.374 99.660,263.280 99.660 C 263.187 99.660,264.405 100.961,265.986 102.551 M179.700 113.520 C 183.969 113.574,190.857 113.574,195.006 113.520 C 199.156 113.466,195.663 113.422,187.245 113.422 C 178.827 113.422,175.431 113.466,179.700 113.520 M256.577 170.068 C 256.577 171.471,256.637 172.045,256.710 171.344 C 256.784 170.642,256.784 169.494,256.710 168.793 C 256.637 168.091,256.577 168.665,256.577 170.068 M294.310 170.748 C 294.310 171.590,294.377 171.935,294.458 171.514 C 294.539 171.093,294.539 170.404,294.458 169.983 C 294.377 169.562,294.310 169.906,294.310 170.748 M239.116 210.714 C 238.289 211.556,237.690 212.245,237.784 212.245 C 237.877 212.245,238.630 211.556,239.456 210.714 C 240.282 209.872,240.881 209.184,240.788 209.184 C 240.694 209.184,239.942 209.872,239.116 210.714 M179.700 226.785 C 183.969 226.839,190.857 226.839,195.006 226.785 C 199.156 226.731,195.663 226.687,187.245 226.687 C 178.827 226.687,175.431 226.731,179.700 226.785 M265.979 238.350 L 263.095 241.327 266.071 238.443 C 268.836 235.765,269.203 235.374,268.955 235.374 C 268.904 235.374,267.565 236.713,265.979 238.350 M204.171 265.210 C 204.688 265.288,205.454 265.286,205.872 265.205 C 206.290 265.125,205.867 265.061,204.932 265.063 C 203.997 265.066,203.654 265.132,204.171 265.210 " stroke="none" fill="#5f7ab2" fill-rule="evenodd"></path><path id="path4" d="M265.980 102.806 C 269.292 106.202,269.728 106.617,269.728 106.371 C 269.728 106.321,268.082 104.676,266.071 102.715 L 262.415 99.150 265.980 102.806 M171.937 170.153 L 171.939 227.041 187.245 227.046 L 202.551 227.052 187.331 226.958 L 172.111 226.864 172.023 170.065 L 171.936 113.265 171.937 170.153 M202.806 113.500 C 203.134 113.585,203.669 113.585,203.997 113.500 C 204.324 113.414,204.056 113.344,203.401 113.344 C 202.747 113.344,202.479 113.414,202.806 113.500 M250.170 143.878 C 250.460 144.439,250.774 144.898,250.868 144.898 C 250.961 144.898,250.800 144.439,250.510 143.878 C 250.220 143.316,249.906 142.857,249.812 142.857 C 249.719 142.857,249.880 143.316,250.170 143.878 M293.276 158.163 C 293.276 158.818,293.346 159.086,293.432 158.759 C 293.517 158.431,293.517 157.895,293.432 157.568 C 293.346 157.241,293.276 157.509,293.276 158.163 M256.541 166.667 C 256.541 167.321,256.611 167.589,256.697 167.262 C 256.783 166.935,256.783 166.399,256.697 166.071 C 256.611 165.744,256.541 166.012,256.541 166.667 M256.541 173.469 C 256.541 174.124,256.611 174.392,256.697 174.065 C 256.783 173.737,256.783 173.202,256.697 172.874 C 256.611 172.547,256.541 172.815,256.541 173.469 M293.956 176.190 C 293.956 176.845,294.026 177.113,294.112 176.786 C 294.198 176.458,294.198 175.923,294.112 175.595 C 294.026 175.268,293.956 175.536,293.956 176.190 M293.276 182.993 C 293.276 183.648,293.346 183.916,293.432 183.588 C 293.517 183.261,293.517 182.725,293.432 182.398 C 293.346 182.071,293.276 182.338,293.276 182.993 M250.170 196.259 C 249.880 196.820,249.719 197.279,249.812 197.279 C 249.906 197.279,250.220 196.820,250.510 196.259 C 250.800 195.697,250.961 195.238,250.868 195.238 C 250.774 195.238,250.460 195.697,250.170 196.259 M203.316 226.771 C 203.737 226.852,204.426 226.852,204.847 226.771 C 205.268 226.690,204.923 226.623,204.082 226.623 C 203.240 226.623,202.895 226.690,203.316 226.771 M268.689 235.289 L 267.517 236.565 268.793 235.392 C 269.980 234.301,270.224 234.014,269.965 234.014 C 269.908 234.014,269.334 234.588,268.689 235.289 M204.677 264.872 C 205.285 264.947,206.280 264.947,206.888 264.872 C 207.496 264.796,206.998 264.735,205.782 264.735 C 204.566 264.735,204.069 264.796,204.677 264.872 " stroke="none" fill="#94a4cc" fill-rule="evenodd"></path></g></svg>